<mxfile host="app.diagrams.net" agent="Mozilla/5.0 (Windows NT 10.0; Win64; x64) AppleWebKit/537.36 (KHTML, like Gecko) Chrome/134.0.0.0 Safari/537.36 Edg/134.0.0.0" version="26.1.1">
  <diagram name="Страница — 1" id="yUnetwLY6hC_SOKDKd0_">
    <mxGraphModel dx="1683" dy="452" grid="1" gridSize="10" guides="1" tooltips="1" connect="1" arrows="1" fold="1" page="1" pageScale="1" pageWidth="827" pageHeight="1169" math="0" shadow="0">
      <root>
        <mxCell id="0" />
        <mxCell id="1" parent="0" />
        <mxCell id="lNbIqJXMTW2z-JsAO9yy-2" value="«interface»&lt;br&gt;&lt;b&gt;Handler&lt;/b&gt;" style="html=1;whiteSpace=wrap;" vertex="1" parent="1">
          <mxGeometry x="30" y="160" width="160" height="50" as="geometry" />
        </mxCell>
        <mxCell id="lNbIqJXMTW2z-JsAO9yy-4" value="+setNext(h:Handler)&lt;div&gt;+handle(request&lt;span style=&quot;background-color: transparent; color: light-dark(rgb(0, 0, 0), rgb(255, 255, 255));&quot;&gt;)&lt;/span&gt;&lt;/div&gt;" style="html=1;whiteSpace=wrap;align=left;" vertex="1" parent="1">
          <mxGeometry x="30" y="210" width="160" height="50" as="geometry" />
        </mxCell>
        <mxCell id="lNbIqJXMTW2z-JsAO9yy-18" style="edgeStyle=orthogonalEdgeStyle;rounded=0;orthogonalLoop=1;jettySize=auto;html=1;shape=arrow;" edge="1" parent="1" target="lNbIqJXMTW2z-JsAO9yy-4">
          <mxGeometry relative="1" as="geometry">
            <mxPoint x="110" y="290" as="sourcePoint" />
          </mxGeometry>
        </mxCell>
        <mxCell id="lNbIqJXMTW2z-JsAO9yy-5" value="BaseHandler" style="swimlane;fontStyle=1;align=center;verticalAlign=top;childLayout=stackLayout;horizontal=1;startSize=26;horizontalStack=0;resizeParent=1;resizeParentMax=0;resizeLast=0;collapsible=1;marginBottom=0;whiteSpace=wrap;html=1;" vertex="1" parent="1">
          <mxGeometry x="30" y="320" width="160" height="100" as="geometry" />
        </mxCell>
        <mxCell id="lNbIqJXMTW2z-JsAO9yy-6" value="-next:Handler" style="text;strokeColor=none;fillColor=none;align=left;verticalAlign=top;spacingLeft=4;spacingRight=4;overflow=hidden;rotatable=0;points=[[0,0.5],[1,0.5]];portConstraint=eastwest;whiteSpace=wrap;html=1;" vertex="1" parent="lNbIqJXMTW2z-JsAO9yy-5">
          <mxGeometry y="26" width="160" height="26" as="geometry" />
        </mxCell>
        <mxCell id="lNbIqJXMTW2z-JsAO9yy-7" value="" style="line;strokeWidth=1;fillColor=none;align=left;verticalAlign=middle;spacingTop=-1;spacingLeft=3;spacingRight=3;rotatable=0;labelPosition=right;points=[];portConstraint=eastwest;strokeColor=inherit;" vertex="1" parent="lNbIqJXMTW2z-JsAO9yy-5">
          <mxGeometry y="52" width="160" height="8" as="geometry" />
        </mxCell>
        <mxCell id="lNbIqJXMTW2z-JsAO9yy-8" value="+setNext(h,Handler)&lt;div&gt;+handle(request)&lt;/div&gt;" style="text;strokeColor=none;fillColor=none;align=left;verticalAlign=top;spacingLeft=4;spacingRight=4;overflow=hidden;rotatable=0;points=[[0,0.5],[1,0.5]];portConstraint=eastwest;whiteSpace=wrap;html=1;" vertex="1" parent="lNbIqJXMTW2z-JsAO9yy-5">
          <mxGeometry y="60" width="160" height="40" as="geometry" />
        </mxCell>
        <mxCell id="lNbIqJXMTW2z-JsAO9yy-10" style="edgeStyle=orthogonalEdgeStyle;rounded=0;orthogonalLoop=1;jettySize=auto;html=1;exitX=0;exitY=0.25;exitDx=0;exitDy=0;entryX=1;entryY=0.25;entryDx=0;entryDy=0;" edge="1" parent="1" source="lNbIqJXMTW2z-JsAO9yy-9" target="lNbIqJXMTW2z-JsAO9yy-2">
          <mxGeometry relative="1" as="geometry" />
        </mxCell>
        <mxCell id="lNbIqJXMTW2z-JsAO9yy-9" value="Client" style="html=1;whiteSpace=wrap;" vertex="1" parent="1">
          <mxGeometry x="280" y="160" width="110" height="40" as="geometry" />
        </mxCell>
        <mxCell id="lNbIqJXMTW2z-JsAO9yy-11" value="ConcreteHandlers" style="swimlane;fontStyle=1;align=center;verticalAlign=top;childLayout=stackLayout;horizontal=1;startSize=26;horizontalStack=0;resizeParent=1;resizeParentMax=0;resizeLast=0;collapsible=1;marginBottom=0;whiteSpace=wrap;html=1;" vertex="1" parent="1">
          <mxGeometry x="30" y="460" width="160" height="86" as="geometry" />
        </mxCell>
        <mxCell id="lNbIqJXMTW2z-JsAO9yy-12" value="..." style="text;strokeColor=none;fillColor=none;align=left;verticalAlign=top;spacingLeft=4;spacingRight=4;overflow=hidden;rotatable=0;points=[[0,0.5],[1,0.5]];portConstraint=eastwest;whiteSpace=wrap;html=1;" vertex="1" parent="lNbIqJXMTW2z-JsAO9yy-11">
          <mxGeometry y="26" width="160" height="26" as="geometry" />
        </mxCell>
        <mxCell id="lNbIqJXMTW2z-JsAO9yy-13" value="" style="line;strokeWidth=1;fillColor=none;align=left;verticalAlign=middle;spacingTop=-1;spacingLeft=3;spacingRight=3;rotatable=0;labelPosition=right;points=[];portConstraint=eastwest;strokeColor=inherit;" vertex="1" parent="lNbIqJXMTW2z-JsAO9yy-11">
          <mxGeometry y="52" width="160" height="8" as="geometry" />
        </mxCell>
        <mxCell id="lNbIqJXMTW2z-JsAO9yy-14" value="+handle(request&lt;div&gt;)&lt;/div&gt;" style="text;strokeColor=none;fillColor=none;align=left;verticalAlign=top;spacingLeft=4;spacingRight=4;overflow=hidden;rotatable=0;points=[[0,0.5],[1,0.5]];portConstraint=eastwest;whiteSpace=wrap;html=1;" vertex="1" parent="lNbIqJXMTW2z-JsAO9yy-11">
          <mxGeometry y="60" width="160" height="26" as="geometry" />
        </mxCell>
        <mxCell id="lNbIqJXMTW2z-JsAO9yy-15" value="" style="endArrow=diamondThin;endFill=0;endSize=24;html=1;rounded=0;exitX=0;exitY=0.75;exitDx=0;exitDy=0;" edge="1" parent="1" source="lNbIqJXMTW2z-JsAO9yy-2">
          <mxGeometry width="160" relative="1" as="geometry">
            <mxPoint x="-10" y="370" as="sourcePoint" />
            <mxPoint x="30" y="369.5" as="targetPoint" />
            <Array as="points">
              <mxPoint x="-10" y="198" />
              <mxPoint x="-10" y="370" />
            </Array>
          </mxGeometry>
        </mxCell>
        <mxCell id="lNbIqJXMTW2z-JsAO9yy-16" style="edgeStyle=orthogonalEdgeStyle;rounded=0;orthogonalLoop=1;jettySize=auto;html=1;exitX=0.5;exitY=0;exitDx=0;exitDy=0;entryX=0.5;entryY=1.075;entryDx=0;entryDy=0;entryPerimeter=0;" edge="1" parent="1" source="lNbIqJXMTW2z-JsAO9yy-22" target="lNbIqJXMTW2z-JsAO9yy-8">
          <mxGeometry relative="1" as="geometry" />
        </mxCell>
        <mxCell id="lNbIqJXMTW2z-JsAO9yy-19" value="" style="endArrow=none;dashed=1;html=1;rounded=0;" edge="1" parent="1">
          <mxGeometry width="50" height="50" relative="1" as="geometry">
            <mxPoint x="110" y="320" as="sourcePoint" />
            <mxPoint x="110" y="290" as="targetPoint" />
          </mxGeometry>
        </mxCell>
        <mxCell id="lNbIqJXMTW2z-JsAO9yy-22" value="" style="verticalLabelPosition=bottom;verticalAlign=top;html=1;shape=mxgraph.basic.acute_triangle;dx=0.5;" vertex="1" parent="1">
          <mxGeometry x="100" y="420" width="20" height="20" as="geometry" />
        </mxCell>
        <mxCell id="lNbIqJXMTW2z-JsAO9yy-28" value="" style="endArrow=none;html=1;rounded=0;exitX=0.5;exitY=0;exitDx=0;exitDy=0;entryX=0.5;entryY=1;entryDx=0;entryDy=0;entryPerimeter=0;" edge="1" parent="1" source="lNbIqJXMTW2z-JsAO9yy-11" target="lNbIqJXMTW2z-JsAO9yy-22">
          <mxGeometry width="50" height="50" relative="1" as="geometry">
            <mxPoint x="390" y="360" as="sourcePoint" />
            <mxPoint x="440" y="310" as="targetPoint" />
          </mxGeometry>
        </mxCell>
      </root>
    </mxGraphModel>
  </diagram>
</mxfile>
